BBC Natural World 2011/2012 E04 Komodo - Secrets of the Dragon 720p x264 aac mp4 w/subtitles [aularon]

- - -
Synopsis
- - -
The Komodo dragon was discovered one hundred years ago, yet the true nature of the biggest lizard in the world is only just being uncovered. Using hi-tech tools to take a fresh look at this prehistoric beast, Dr Bryan Fry discovers there is a lot more to the dragon than meets the eye - from hidden venom glands to its secret origins.


- - -
URL
- - -   
http://www.bbc.co.uk/programmes/b013sgpk


- - -
Technical Details
- - -
General
Complete name                    : BBC.Natural.World.2011.E04.Komodo.Secrets.of.the.Dragon/Natural_World_-_2011-2012_4._Komodo_-_Secrets_of_the_Dragon_b013sgpk_default.mp4
Format                           : MPEG-4
Format profile                   : Base Media
Codec ID                         : isom
File size                        : 1.05 GiB
Duration                         : 58mn 41s
Overall bit rate                 : 2 558 Kbps
Writing application              : Lavf53.6.0

Video
ID                               : 1
Format                           : AVC
Format/Info                      : Advanced Video Codec
Format profile                   : High@L4.1
Format settings, CABAC           : Yes
Format settings, ReFrames        : 6 frames
Codec ID                         : avc1
Codec ID/Info                    : Advanced Video Coding
Duration                         : 58mn 41s
Bit rate mode                    : Variable
Bit rate                         : 2 457 Kbps
Maximum bit rate                 : 3 500 Kbps
Width                            : 1 280 pixels
Height                           : 720 pixels
Display aspect ratio             : 16:9
Frame rate mode                  : Constant
Frame rate                       : 25.000 fps
Standard                         : PAL
Color space                      : YUV
Chroma subsampling               : 4:2:0
Bit depth                        : 8 bits
Scan type                        : Progressive
Bits/(Pixel*Frame)               : 0.107
Stream size                      : 1.01 GiB (96%)

Audio
ID                               : 2
Format                           : AAC
Format/Info                      : Advanced Audio Codec
Format profile                   : HE-AAC / LC
Codec ID                         : 40
Duration                         : 58mn 41s
Bit rate mode                    : Constant
Bit rate                         : 96.0 Kbps
Channel(s)                       : 2 channels
Channel positions                : Front: L R
Sampling rate                    : 48.0 KHz / 24.0 KHz
Compression mode                 : Lossy
Stream size                      : 39.8 MiB (4%)
